<?xml version="1.0" encoding="UTF-8"?>
		<svg xmlns="http://www.w3.org/2000/svg"  preserveAspectRatio="none" width="40" height="20">
			<style>
				* {
					vector-effect: non-scaling-stroke;
				}

				.sparkline {
					stroke-width: 2;
					fill: transparent;
					stroke: black;
				}

				.anomaly {
					stroke-dasharray: 4, 2;
					stroke-dashoffset: 1;
				}

			

			</style>

			<path class="sparkline-fill" style="fill:#e1e1e1;" d="M -2.6666666666666665 9.370147605020486L 0 5.190708986837958L 2.6666666666666665 3.0193367379610656L 5.333333333333333 2L 8 2.0383140689036914L 10.666666666666666 2.1102294921875036L 13.333333333333332 2.1102294921875036L 16 2.6409772028688607L 18.666666666666664 7.100988169185451L 21.333333333333332 9.232762070952868L 24 6.644665327228484L 26.666666666666664 6.913440141521518L 29.333333333333332 6.918194880251026L 32 6.918194880251026L 34.666666666666664 7.335396788550206L 37.33333333333333 7.121235431608609L 37.33333333333333 20 L -5.333333333333333 20"></path>
					<path class="sparkline" style="stroke:#555555;" d="M -2.6666666666666665 9.370147605020486L 0 5.190708986837958L 2.6666666666666665 3.0193367379610656L 5.333333333333333 2L 8 2.0383140689036914L 10.666666666666666 2.1102294921875036L 13.333333333333332 2.1102294921875036L 16 2.6409772028688607L 18.666666666666664 7.100988169185451L 21.333333333333332 9.232762070952868L 24 6.644665327228484L 26.666666666666664 6.913440141521518L 29.333333333333332 6.918194880251026L 32 6.918194880251026L 34.666666666666664 7.335396788550206L 37.33333333333333 7.121235431608609"></path>
				
				
		</svg>