<?xml version="1.0" encoding="UTF-8"?>
		<svg xmlns="http://www.w3.org/2000/svg"  preserveAspectRatio="none" width="40" height="20">
			<style>
				* {
					vector-effect: non-scaling-stroke;
				}

				.sparkline {
					stroke-width: 2;
					fill: transparent;
					stroke: black;
				}

				.anomaly {
					stroke-dasharray: 4, 2;
					stroke-dashoffset: 1;
				}

			

			</style>

			<path class="sparkline-fill" style="fill:#efc9c9;" d="M -2.6666666666666665 2.1958163199045693L 0 2L 2.6666666666666665 3.0562135003604673L 5.333333333333333 3.1069036889989796L 8 2.2371752032188716L 10.666666666666666 2.2376976756118907L 13.333333333333332 2.2624124857744903L 16 2.6927593121029254L 18.666666666666664 3.072447464000682L 21.333333333333332 4.0844552937396355L 24 4.556649048794116L 26.666666666666664 4.588171549839556L 29.333333333333332 4.601681193144744L 32 4.6096675568665955L 34.666666666666664 4.998409408946225L 37.33333333333333 5.207301335566282L 37.33333333333333 20 L -5.333333333333333 20"></path>
					<path class="sparkline" style="stroke:#cf1111;" d="M -2.6666666666666665 2.1958163199045693L 0 2L 2.6666666666666665 3.0562135003604673L 5.333333333333333 3.1069036889989796L 8 2.2371752032188716L 10.666666666666666 2.2376976756118907L 13.333333333333332 2.2624124857744903L 16 2.6927593121029254L 18.666666666666664 3.072447464000682L 21.333333333333332 4.0844552937396355L 24 4.556649048794116L 26.666666666666664 4.588171549839556L 29.333333333333332 4.601681193144744L 32 4.6096675568665955L 34.666666666666664 4.998409408946225L 37.33333333333333 5.207301335566282"></path>
				
				
		</svg>